<?xml version="1.0" encoding="UTF-8" standalone="no"?><svg xmlns="http://www.w3.org/2000/svg" xmlns:xlink="http://www.w3.org/1999/xlink" contentScriptType="application/ecmascript" contentStyleType="text/css" height="428px" preserveAspectRatio="none" style="width:275px;height:428px;" version="1.1" viewBox="0 0 275 428" width="275px" zoomAndPan="magnify"><defs><filter height="300%" id="f6cwnfvvp2ucm" width="300%" x="-1" y="-1"><feGaussianBlur result="blurOut" stdDeviation="2.0"/><feColorMatrix in="blurOut" result="blurOut2" type="matrix" values="0 0 0 0 0 0 0 0 0 0 0 0 0 0 0 0 0 0 .4 0"/><feOffset dx="4.0" dy="4.0" in="blurOut2" result="blurOut3"/><feBlend in="SourceGraphic" in2="blurOut3" mode="normal"/></filter></defs><g><text fill="#000000" font-family="sans-serif" font-size="18" lengthAdjust="spacingAndGlyphs" textLength="192" x="40.5" y="26.708">rotate wheel diagram</text><ellipse cx="137" cy="40.9531" fill="#000000" filter="url(#f6cwnfvvp2ucm)" rx="10" ry="10" style="stroke: none; stroke-width: 1.0;"/><ellipse cx="137" cy="129.3555" fill="#FFFFFF" filter="url(#f6cwnfvvp2ucm)" rx="10" ry="10" style="stroke: #000000; stroke-width: 1.5;"/><line style="stroke: #000000; stroke-width: 2.5;" x1="130.8128" x2="143.1872" y1="123.1683" y2="135.5427"/><line style="stroke: #000000; stroke-width: 2.5;" x1="143.1872" x2="130.8128" y1="123.1683" y2="135.5427"/><polygon fill="#FEFECE" filter="url(#f6cwnfvvp2ucm)" points="119.5,70.9531,154.5,70.9531,166.5,82.9531,154.5,94.9531,119.5,94.9531,107.5,82.9531,119.5,70.9531" style="stroke: #A80036; stroke-width: 1.5;"/><text fill="#000000" font-family="sans-serif" font-size="11" lengthAdjust="spacingAndGlyphs" textLength="37" x="141" y="105.1636">&gt;1022</text><text fill="#000000" font-family="sans-serif" font-size="11" lengthAdjust="spacingAndGlyphs" textLength="35" x="119.5" y="86.7612">speed</text><rect fill="#FEFECE" filter="url(#f6cwnfvvp2ucm)" height="33.9688" rx="12.5" ry="12.5" style="stroke: #A80036; stroke-width: 1.5;" width="254" x="10" y="181.3555"/><text fill="#000000" font-family="sans-serif" font-size="12" lengthAdjust="spacingAndGlyphs" textLength="234" x="20" y="202.4941">posar parametres per a gir continuat</text><rect fill="#FEFECE" filter="url(#f6cwnfvvp2ucm)" height="33.9688" rx="12.5" ry="12.5" style="stroke: #A80036; stroke-width: 1.5;" width="206" x="34" y="235.3242"/><text fill="#000000" font-family="sans-serif" font-size="12" lengthAdjust="spacingAndGlyphs" textLength="186" x="44" y="256.4629">enviar parametres com WRITE</text><rect fill="#FEFECE" filter="url(#f6cwnfvvp2ucm)" height="33.9688" rx="12.5" ry="12.5" style="stroke: #A80036; stroke-width: 1.5;" width="242" x="16" y="289.293"/><text fill="#000000" font-family="sans-serif" font-size="12" lengthAdjust="spacingAndGlyphs" textLength="222" x="26" y="310.4316">posar parametres per a la velocitat</text><rect fill="#FEFECE" filter="url(#f6cwnfvvp2ucm)" height="33.9688" rx="12.5" ry="12.5" style="stroke: #A80036; stroke-width: 1.5;" width="206" x="34" y="343.2617"/><text fill="#000000" font-family="sans-serif" font-size="12" lengthAdjust="spacingAndGlyphs" textLength="186" x="44" y="364.4004">enviar parametres com WRITE</text><ellipse cx="137" cy="407.2305" fill="none" filter="url(#f6cwnfvvp2ucm)" rx="10" ry="10" style="stroke: #000000; stroke-width: 1.0;"/><ellipse cx="137.5" cy="407.7305" fill="#000000" filter="url(#f6cwnfvvp2ucm)" rx="6" ry="6" style="stroke: none; stroke-width: 1.0;"/><line style="stroke: #A80036; stroke-width: 1.5;" x1="137" x2="137" y1="94.9531" y2="119.3555"/><polygon fill="#A80036" points="133,109.3555,137,119.3555,141,109.3555,137,113.3555" style="stroke: #A80036; stroke-width: 1.0;"/><line style="stroke: #A80036; stroke-width: 1.5;" x1="166.5" x2="178.5" y1="82.9531" y2="82.9531"/><polygon fill="#A80036" points="174.5,116.3555,178.5,126.3555,182.5,116.3555,178.5,120.3555" style="stroke: #A80036; stroke-width: 1.5;"/><line style="stroke: #A80036; stroke-width: 1.5;" x1="178.5" x2="178.5" y1="82.9531" y2="161.3555"/><line style="stroke: #A80036; stroke-width: 1.5;" x1="178.5" x2="137" y1="161.3555" y2="161.3555"/><line style="stroke: #A80036; stroke-width: 1.5;" x1="137" x2="137" y1="161.3555" y2="181.3555"/><polygon fill="#A80036" points="133,171.3555,137,181.3555,141,171.3555,137,175.3555" style="stroke: #A80036; stroke-width: 1.0;"/><line style="stroke: #A80036; stroke-width: 1.5;" x1="137" x2="137" y1="50.9531" y2="70.9531"/><polygon fill="#A80036" points="133,60.9531,137,70.9531,141,60.9531,137,64.9531" style="stroke: #A80036; stroke-width: 1.0;"/><line style="stroke: #A80036; stroke-width: 1.5;" x1="137" x2="137" y1="215.3242" y2="235.3242"/><polygon fill="#A80036" points="133,225.3242,137,235.3242,141,225.3242,137,229.3242" style="stroke: #A80036; stroke-width: 1.0;"/><line style="stroke: #A80036; stroke-width: 1.5;" x1="137" x2="137" y1="269.293" y2="289.293"/><polygon fill="#A80036" points="133,279.293,137,289.293,141,279.293,137,283.293" style="stroke: #A80036; stroke-width: 1.0;"/><line style="stroke: #A80036; stroke-width: 1.5;" x1="137" x2="137" y1="323.2617" y2="343.2617"/><polygon fill="#A80036" points="133,333.2617,137,343.2617,141,333.2617,137,337.2617" style="stroke: #A80036; stroke-width: 1.0;"/><line style="stroke: #A80036; stroke-width: 1.5;" x1="137" x2="137" y1="377.2305" y2="397.2305"/><polygon fill="#A80036" points="133,387.2305,137,397.2305,141,387.2305,137,391.2305" style="stroke: #A80036; stroke-width: 1.0;"/><!--
@startuml
title rotate wheel diagram

start
if (speed) then (>1022)
    end
endif

:posar parametres per a gir continuat;
:enviar parametres com WRITE;
:posar parametres per a la velocitat;
:enviar parametres com WRITE;

stop
@enduml

PlantUML version 1.2018.04beta7(Unknown compile time)
(GPL source distribution)
Java Runtime: Java(TM) SE Runtime Environment
JVM: Java HotSpot(TM) 64-Bit Server VM
Java Version: 1.7.0_25-b15
Operating System: Linux
Default Encoding: UTF-8
Language: en
Country: US
--></g></svg>