<?xml version="1.0" encoding="UTF-8" standalone="no"?><svg xmlns="http://www.w3.org/2000/svg" xmlns:xlink="http://www.w3.org/1999/xlink" contentScriptType="application/ecmascript" contentStyleType="text/css" height="614px" preserveAspectRatio="none" style="width:191px;height:614px;" version="1.1" viewBox="0 0 191 614" width="191px" zoomAndPan="magnify"><defs><filter height="300%" id="fz2x5vqru91u2" width="300%" x="-1" y="-1"><feGaussianBlur result="blurOut" stdDeviation="2.0"/><feColorMatrix in="blurOut" result="blurOut2" type="matrix" values="0 0 0 0 0 0 0 0 0 0 0 0 0 0 0 0 0 0 .4 0"/><feOffset dx="4.0" dy="4.0" in="blurOut2" result="blurOut3"/><feBlend in="SourceGraphic" in2="blurOut3" mode="normal"/></filter></defs><g><text fill="#000000" font-family="sans-serif" font-size="18" lengthAdjust="spacingAndGlyphs" textLength="156" x="16.5" y="26.708">tx_status diagram</text><ellipse cx="95" cy="40.9531" fill="#000000" filter="url(#fz2x5vqru91u2)" rx="10" ry="10" style="stroke: none; stroke-width: 1.0;"/><ellipse cx="95" cy="129.3555" fill="#FFFFFF" filter="url(#fz2x5vqru91u2)" rx="10" ry="10" style="stroke: #000000; stroke-width: 1.5;"/><line style="stroke: #000000; stroke-width: 2.5;" x1="88.8128" x2="101.1872" y1="123.1683" y2="135.5427"/><line style="stroke: #000000; stroke-width: 2.5;" x1="101.1872" x2="88.8128" y1="123.1683" y2="135.5427"/><polygon fill="#FEFECE" filter="url(#fz2x5vqru91u2)" points="52.5,70.9531,137.5,70.9531,149.5,82.9531,137.5,94.9531,52.5,94.9531,40.5,82.9531,52.5,70.9531" style="stroke: #A80036; stroke-width: 1.5;"/><text fill="#000000" font-family="sans-serif" font-size="11" lengthAdjust="spacingAndGlyphs" textLength="21" x="99" y="105.1636">Yes</text><text fill="#000000" font-family="sans-serif" font-size="11" lengthAdjust="spacingAndGlyphs" textLength="85" x="52.5" y="86.7612">registre invalid</text><rect fill="#FEFECE" filter="url(#fz2x5vqru91u2)" height="33.9688" rx="12.5" ry="12.5" style="stroke: #A80036; stroke-width: 1.5;" width="124" x="33" y="181.3555"/><text fill="#000000" font-family="sans-serif" font-size="12" lengthAdjust="spacingAndGlyphs" textLength="104" x="43" y="202.4941">posar direcci贸 tx</text><rect fill="#FEFECE" filter="url(#fz2x5vqru91u2)" height="33.9688" rx="12.5" ry="12.5" style="stroke: #A80036; stroke-width: 1.5;" width="170" x="10" y="235.3242"/><text fill="#000000" font-family="sans-serif" font-size="12" lengthAdjust="spacingAndGlyphs" textLength="150" x="20" y="256.4629">escriure dades al buffer</text><rect fill="#FEFECE" filter="url(#fz2x5vqru91u2)" height="33.9688" rx="12.5" ry="12.5" style="stroke: #A80036; stroke-width: 1.5;" width="136" x="27" y="289.293"/><text fill="#000000" font-family="sans-serif" font-size="12" lengthAdjust="spacingAndGlyphs" textLength="116" x="37" y="310.4316">calcular checksum</text><rect fill="#FEFECE" filter="url(#fz2x5vqru91u2)" height="33.9688" rx="12.5" ry="12.5" style="stroke: #A80036; stroke-width: 1.5;" width="94" x="48" y="398.9722"/><text fill="#000000" font-family="sans-serif" font-size="12" lengthAdjust="spacingAndGlyphs" textLength="74" x="58" y="420.1108">enviar dada</text><polygon fill="#FEFECE" filter="url(#fz2x5vqru91u2)" points="65.5,343.2617,124.5,343.2617,136.5,355.2617,124.5,367.2617,65.5,367.2617,53.5,355.2617,65.5,343.2617" style="stroke: #A80036; stroke-width: 1.5;"/><text fill="#000000" font-family="sans-serif" font-size="11" lengthAdjust="spacingAndGlyphs" textLength="15" x="99" y="377.4722">No</text><text fill="#000000" font-family="sans-serif" font-size="11" lengthAdjust="spacingAndGlyphs" textLength="59" x="65.5" y="359.0698">tot enviat?</text><text fill="#000000" font-family="sans-serif" font-size="11" lengthAdjust="spacingAndGlyphs" textLength="11" x="42.5" y="352.6675">Si</text><polygon fill="#FEFECE" filter="url(#fz2x5vqru91u2)" points="73,474.9409,117,474.9409,129,486.9409,117,498.9409,73,498.9409,61,486.9409,73,474.9409" style="stroke: #A80036; stroke-width: 1.5;"/><text fill="#000000" font-family="sans-serif" font-size="11" lengthAdjust="spacingAndGlyphs" textLength="11" x="99" y="509.1514">Si</text><text fill="#000000" font-family="sans-serif" font-size="11" lengthAdjust="spacingAndGlyphs" textLength="44" x="73" y="490.749">ocupat?</text><text fill="#000000" font-family="sans-serif" font-size="11" lengthAdjust="spacingAndGlyphs" textLength="15" x="46" y="484.3467">No</text><rect fill="#FEFECE" filter="url(#fz2x5vqru91u2)" height="33.9688" rx="12.5" ry="12.5" style="stroke: #A80036; stroke-width: 1.5;" width="124" x="33" y="569.3433"/><text fill="#000000" font-family="sans-serif" font-size="12" lengthAdjust="spacingAndGlyphs" textLength="104" x="43" y="590.4819">posar direcci贸 rx</text><line style="stroke: #A80036; stroke-width: 1.5;" x1="95" x2="95" y1="94.9531" y2="119.3555"/><polygon fill="#A80036" points="91,109.3555,95,119.3555,99,109.3555,95,113.3555" style="stroke: #A80036; stroke-width: 1.0;"/><line style="stroke: #A80036; stroke-width: 1.5;" x1="149.5" x2="161.5" y1="82.9531" y2="82.9531"/><polygon fill="#A80036" points="157.5,116.3555,161.5,126.3555,165.5,116.3555,161.5,120.3555" style="stroke: #A80036; stroke-width: 1.5;"/><line style="stroke: #A80036; stroke-width: 1.5;" x1="161.5" x2="161.5" y1="82.9531" y2="161.3555"/><line style="stroke: #A80036; stroke-width: 1.5;" x1="161.5" x2="95" y1="161.3555" y2="161.3555"/><line style="stroke: #A80036; stroke-width: 1.5;" x1="95" x2="95" y1="161.3555" y2="181.3555"/><polygon fill="#A80036" points="91,171.3555,95,181.3555,99,171.3555,95,175.3555" style="stroke: #A80036; stroke-width: 1.0;"/><line style="stroke: #A80036; stroke-width: 1.5;" x1="95" x2="95" y1="50.9531" y2="70.9531"/><polygon fill="#A80036" points="91,60.9531,95,70.9531,99,60.9531,95,64.9531" style="stroke: #A80036; stroke-width: 1.0;"/><line style="stroke: #A80036; stroke-width: 1.5;" x1="95" x2="95" y1="215.3242" y2="235.3242"/><polygon fill="#A80036" points="91,225.3242,95,235.3242,99,225.3242,95,229.3242" style="stroke: #A80036; stroke-width: 1.0;"/><line style="stroke: #A80036; stroke-width: 1.5;" x1="95" x2="95" y1="269.293" y2="289.293"/><polygon fill="#A80036" points="91,279.293,95,289.293,99,279.293,95,283.293" style="stroke: #A80036; stroke-width: 1.0;"/><line style="stroke: #A80036; stroke-width: 1.5;" x1="95" x2="95" y1="367.2617" y2="398.9722"/><polygon fill="#A80036" points="91,388.9722,95,398.9722,99,388.9722,95,392.9722" style="stroke: #A80036; stroke-width: 1.0;"/><line style="stroke: #A80036; stroke-width: 1.5;" x1="95" x2="95" y1="432.9409" y2="442.9409"/><line style="stroke: #A80036; stroke-width: 1.5;" x1="95" x2="154" y1="442.9409" y2="442.9409"/><polygon fill="#A80036" points="150,407.5542,154,397.5542,158,407.5542,154,403.5542" style="stroke: #A80036; stroke-width: 1.5;"/><line style="stroke: #A80036; stroke-width: 1.5;" x1="154" x2="154" y1="355.2617" y2="442.9409"/><line style="stroke: #A80036; stroke-width: 1.5;" x1="154" x2="136.5" y1="355.2617" y2="355.2617"/><polygon fill="#A80036" points="146.5,351.2617,136.5,355.2617,146.5,359.2617,142.5,355.2617" style="stroke: #A80036; stroke-width: 1.0;"/><line style="stroke: #A80036; stroke-width: 1.5;" x1="53.5" x2="36" y1="355.2617" y2="355.2617"/><polygon fill="#A80036" points="32,393.5542,36,403.5542,40,393.5542,36,397.5542" style="stroke: #A80036; stroke-width: 1.5;"/><line style="stroke: #A80036; stroke-width: 1.5;" x1="36" x2="36" y1="355.2617" y2="454.9409"/><line style="stroke: #A80036; stroke-width: 1.5;" x1="36" x2="95" y1="454.9409" y2="454.9409"/><line style="stroke: #A80036; stroke-width: 1.5;" x1="95" x2="95" y1="454.9409" y2="474.9409"/><polygon fill="#A80036" points="91,464.9409,95,474.9409,99,464.9409,95,468.9409" style="stroke: #A80036; stroke-width: 1.0;"/><line style="stroke: #A80036; stroke-width: 1.5;" x1="95" x2="95" y1="323.2617" y2="343.2617"/><polygon fill="#A80036" points="91,333.2617,95,343.2617,99,333.2617,95,337.2617" style="stroke: #A80036; stroke-width: 1.0;"/><line style="stroke: #A80036; stroke-width: 1.5;" x1="95" x2="95" y1="498.9409" y2="537.3433"/><line style="stroke: #A80036; stroke-width: 1.5;" x1="95" x2="141" y1="537.3433" y2="537.3433"/><polygon fill="#A80036" points="137,527.3433,141,517.3433,145,527.3433,141,523.3433" style="stroke: #A80036; stroke-width: 1.5;"/><line style="stroke: #A80036; stroke-width: 1.5;" x1="141" x2="141" y1="486.9409" y2="537.3433"/><line style="stroke: #A80036; stroke-width: 1.5;" x1="141" x2="129" y1="486.9409" y2="486.9409"/><polygon fill="#A80036" points="139,482.9409,129,486.9409,139,490.9409,135,486.9409" style="stroke: #A80036; stroke-width: 1.0;"/><line style="stroke: #A80036; stroke-width: 1.5;" x1="61" x2="49" y1="486.9409" y2="486.9409"/><polygon fill="#A80036" points="45,513.3433,49,523.3433,53,513.3433,49,517.3433" style="stroke: #A80036; stroke-width: 1.5;"/><line style="stroke: #A80036; stroke-width: 1.5;" x1="49" x2="49" y1="486.9409" y2="549.3433"/><line style="stroke: #A80036; stroke-width: 1.5;" x1="49" x2="95" y1="549.3433" y2="549.3433"/><line style="stroke: #A80036; stroke-width: 1.5;" x1="95" x2="95" y1="549.3433" y2="569.3433"/><polygon fill="#A80036" points="91,559.3433,95,569.3433,99,559.3433,95,563.3433" style="stroke: #A80036; stroke-width: 1.0;"/><!--
@startuml
title tx_status diagram

start
if (registre invalid) then (Yes)
    end
endif
:posar direcci贸 tx;
:escriure dades al buffer;
:calcular checksum;
while (tot enviat?) is (No)
    :enviar dada;
endwhile (Si)

while (ocupat?) is (Si)
endwhile (No)
:posar direcci贸 rx;
@enduml

PlantUML version 1.2018.04beta7(Unknown compile time)
(GPL source distribution)
Java Runtime: Java(TM) SE Runtime Environment
JVM: Java HotSpot(TM) 64-Bit Server VM
Java Version: 1.7.0_25-b15
Operating System: Linux
Default Encoding: UTF-8
Language: en
Country: US
--></g></svg>